<svg fill="none" height="48" viewBox="0 0 24 24" width="48" xmlns="http://www.w3.org/2000/svg"><path d="m6 17.4998c.41783-.3138.9372-.4998 1.5-.4998 1.38071 0 2.5 1.1193 2.5 2.5 0 .5628-.18597 1.0822-.49982 1.5m8.49982-3.5002c-.4178-.3138-.9372-.4998-1.5-.4998-1.3807 0-2.5 1.1193-2.5 2.5 0 .5628.186 1.0822.4998 1.5m3.5001-11.00005c.9884-.00077 1.5065-.01332 1.9081-.21794.3763-.19174.6823-.4977.874-.87403.218-.42782.218-.98788.218-2.10798v-.6c0-1.1201 0-1.68016-.218-2.10798-.1917-.37633-.4977-.68229-.874-.87403-.4278-.21799-.9879-.21799-2.108-.21799h-11.6c-1.1201 0-1.68016 0-2.10798.21799-.37633.19174-.68229.4977-.87403.87403-.21799.42782-.21799.98788-.21799 2.10798v.6c0 1.1201 0 1.68016.21799 2.10798.19174.37633.4977.68229.87403.87403.40157.20462.91965.21717 1.90803.21794m11.99985 0c.0001.06465.0001.13125.0001.20005v7.6c0 1.1201 0 1.6802-.218 2.108-.1917.3763-.4977.6823-.874.874-.4278.218-.9879.218-2.108.218h-5.6c-1.12011 0-1.68016 0-2.10798-.218-.37633-.1917-.68229-.4977-.87403-.874-.21799-.4278-.21799-.9879-.21799-2.108v-7.6c0-.0688 0-.1354.00005-.20005m11.99985 0c-.0007-.98832-.0133-1.50637-.2179-1.90793-.1917-.37633-.4977-.68229-.874-.87403-.4278-.21799-.9879-.21799-2.108-.21799h-5.6c-1.1201 0-1.68016 0-2.10798.21799-.37633.19174-.68229.4977-.87403.87403-.20461.40156-.21717.91961-.21794 1.90793m7.99995 2.00005c0 1.1046-.8954 2-2 2s-2-.8954-2-2 .8954-2 2-2 2 .8954 2 2z" stroke="#000" stroke-linecap="round" stroke-linejoin="round" stroke-width="2"/></svg>
